<?xml version="1.0" encoding="utf-8"?>
<!-- Generator: Adobe Illustrator 21.0.0, SVG Export Plug-In . SVG Version: 6.00 Build 0)  -->
<svg version="1.1" id="Layer_1" xmlns="http://www.w3.org/2000/svg" xmlns:xlink="http://www.w3.org/1999/xlink" x="0px" y="0px"
	 viewBox="0 0 169 291.9" style="enable-background:new 0 0 169 291.9;" xml:space="preserve">
<style type="text/css">
	.st0{fill:#DE6A22;}
</style>
<path class="st0" d="M24.3,285.9c-1-0.9-1.5-1.3-1.9-1.7c-4.7-4.7-9.3-9.4-14.1-14c-1.1-1.1-1.5-1.9,0-2.9c0.6-0.4,1.1-1,1.6-1.6
	C49,226.4,88.3,187.1,127.6,148c2.3-2.3,2.4-3.3,0-5.7C88.2,103.1,48.9,63.7,9.5,24.4c-2.3-2.3-2.6-3.4,0-5.7
	c4.1-3.6,7.9-7.6,11.7-11.6c1.9-2.1,3-2.3,5.1-0.1c18.4,18.6,36.9,37,55.3,55.5c26.7,26.7,53.3,53.4,80.1,80c2,2,2.2,3,0.1,5.2
	C116.5,192.9,71.2,238.1,26,283.4C25.3,284.1,24.9,285,24.3,285.9z"/>
</svg>
