<?xml version="1.0" encoding="utf-8"?>
<!-- Generator: Adobe Illustrator 21.0.0, SVG Export Plug-In . SVG Version: 6.00 Build 0)  -->
<svg version="1.1" id="Layer_1" xmlns="http://www.w3.org/2000/svg" xmlns:xlink="http://www.w3.org/1999/xlink" x="0px" y="0px"
	 viewBox="0 0 364.3 70" style="enable-background:new 0 0 364.3 70;" xml:space="preserve">
<style type="text/css">
	.st0{fill:#292D3F;}
	.st1{fill:#DD6A20;}
	.st2{fill:#DD6921;}
	.st3{fill:#2A2D40;}
	.st4{fill:#2A2D3F;}
	.st5{fill:#2C2E41;}
	.st6{fill:#2C2F41;}
	.st7{fill:#DD6C25;}
	.st8{fill:#DD6B26;}
	.st9{fill:#FFFFFF;}
</style>
<g>
	<path class="st0" d="M6.3,37.8c-0.9-1.4-1.7-2.9-2.6-4.3c-1.7-2.7-4.8-5.7,1.8-5.8c1.2,0,1.4-1.2,1.7-2.1
		C11.8,11.3,21.8,3.3,36.6,1.6C50.8-0.1,61.2,6.4,69,18c0.1,0.1,0.2,0.2,0.4,0.3c5.5,4.2,7.9,10.7,11.8,16.1c2.3,2.9,4.1,6.1,6.3,9
		c5.6,7.3,14.7,8.2,21.5,2c1.1-1,2.6-2.2,1.2-3.7c-3-3.2-1.2-5.8,0.7-8.5c1-1.5,1.8-3.2,2.8-4.7c1.8-2.4,3.8-4.6,5.7-6.9
		c2.7-3.2,4.9-3.3,7.9-0.3c2.2,2.1,3.2,5,4.7,7.6c0.7,3.1,2.9,5.2,4.5,7.7c1.2,1.9,1.6,3.8-1.2,3.9c-2.5,0.1-2.9,1.3-3.4,3.2
		c-4.1,14.5-14,22.9-28.7,24.9c-13.8,1.9-24.6-3.9-32.5-15.3c-0.4-0.5-0.8-1-1.3-1.5c-5.2-4.6-7.9-11.1-12-16.4
		c-1.9-2.9-4-5.7-6.1-8.5c-4.4-6.1-14-7.7-19.9-3.4c-1,0.8-2.9,1.8-2.1,3c3.1,4.9-1.1,7.6-2.9,11C26,38.3,25.5,39,25,39.6
		c-1.8,2.6-3.3,5.4-5.5,7.7c-3,3.3-4.9,3.2-7.7-0.2C9.5,44.4,7.3,41.4,6.3,37.8z"/>
	<path class="st1" d="M58.3,35.2c4,5.4,7.8,10.9,11,16.7c-7.6,11.4-17.9,17.9-32,17.1C20.8,68,6.9,54.1,6.3,37.8
		c2.2,2.9,4.7,5.6,6.5,8.7c2.2,3.7,3.9,2.6,5.8,0c1.9-2.5,3.7-5,5.5-7.6c2,0.6,2.4,2.6,3.5,4c7,8.8,17,8.8,24-0.1
		C53.8,40.3,54.7,36.5,58.3,35.2z"/>
	<path class="st2" d="M80.3,34.9c-3.7-5.5-7.3-11.1-11-16.6C75.7,9.3,83.6,2.9,95,1.4c15.9-2.1,35.2,9.6,36.9,27.5
		c-2.5-1.2-3.3-4-4.9-5.9c-3.2-3.8-4.5-3.8-7.4,0c-1.7,2.2-2.8,4.7-5.3,6.3c-2.6,0.1-3.4-2.3-4.9-3.7c-7.3-7.1-16.4-6.2-22.5,2
		C85,30.2,84.1,33.9,80.3,34.9z"/>
	<path class="st3" d="M333.3,38.1c0-5.7,0.1-11.3,0-17c-0.1-2.6,0.8-3.6,3.4-3.5c7.8,0.1,15.6,0.2,23.4,0c4.3-0.1,3.1,2.8,3.2,5.1
		c0.1,2.4,0.4,4.7-3.4,4.5c-4.3-0.3-8.7,0.1-13-0.1c-3.2-0.2-2.8,1.8-2.9,3.8c-0.2,2.3,0.4,3.4,3,3.2c2.5-0.2,5,0.1,7.5-0.1
		c3.1-0.2,4.8,0.1,4.8,4.1c0,4-1.8,4.3-4.8,4.1c-2-0.1-4,0.1-6-0.1c-2.8-0.2-4.6,0-4.6,3.8c0,3.7,1.9,3.5,4.3,3.4
		c3.8-0.1,7.7,0.2,11.5-0.1c4.2-0.4,4.4,1.9,4.4,5.1c0,3.3-0.8,4.8-4.5,4.6c-7.3-0.3-14.6-0.3-21.9,0c-3.9,0.2-4.8-1.3-4.6-4.9
		C333.5,48.8,333.3,43.4,333.3,38.1z"/>
	<path class="st4" d="M157.4,34.8c2.4,0.6,1.1,2.4,1.2,3.7c0.6,8.3,7.5,12.9,15.1,9.5c5.9-2.6,5.6,3.2,7.4,5.4
		c2.3,2.8-1.5,3.5-3.1,4.1c-8.2,3.5-16,2.5-22.7-3.5c-6.7-5.9-8.6-13.5-6.2-22.1c0.4-1.3,0.9-2.5,1.3-3.7
		C154,29.1,154.5,33.2,157.4,34.8z"/>
	<path class="st5" d="M313.7,38.7c0-5.8,0.1-11.7,0-17.5c-0.2-5,3.5-3.3,5.9-3.5c2.4-0.2,5-0.7,4.9,3.4c-0.2,11.5-0.2,23,0,34.5
		c0.1,4.4-2.9,3.3-5.1,3.2c-2.3-0.1-5.7,1.6-5.6-3.1C313.8,50,313.7,44.4,313.7,38.7C313.7,38.7,313.7,38.7,313.7,38.7z"/>
	<path class="st6" d="M280.2,18.1c10.5-1.4,10.5-1.4,10.5,8.9c0,5.8,0,11.7,0,17.5c0,1.9,0.1,3.7-2.6,3.7c-2.2,2.2-4.7,5.5-7.6,4.4
		c-2.2-0.8-0.8-4.8-0.8-7.3C279.9,36.2,279.1,27.1,280.2,18.1z"/>
	<path class="st7" d="M153.1,24.9c6.4-7.8,17.2-10.2,25.4-5.8c2.8,1.5,3.9,2.9,1.1,6c-2.6,3-4.5,4.4-8.7,2.4
		c-3.5-1.7-7.1,0.3-9.7,3.3c-1,1.1-1.4,2.7-3.1,3.1C152.8,32.6,151.7,30.9,153.1,24.9z"/>
	<path class="st8" d="M288.2,48.9c5.1,0,10.3,0.2,15.4,0c4-0.2,3.7,2.2,3.6,4.8c-0.1,2.5,0.9,5.5-3.6,5.3c-6.3-0.2-12.6-0.3-18.9,0
		c-4.4,0.2-5.3-1.3-3.5-5C282.7,51.1,285.3,49.8,288.2,48.9z"/>
	<path class="st9" d="M288.2,48.9c-2.3,1.7-4.7,3.4-7,5.1c-1.9-0.1-2-1.4-2-2.8c0-10.5,0-20.9,0.1-31.4c0-0.6,0.6-1.1,0.9-1.7
		c0,11.3,0,22.7,0,35c2.7-2.7,4.9-4.6,7.9-4.8C288.3,48.5,288.3,48.7,288.2,48.9z"/>
	<path class="st9" d="M153.1,24.9c-0.6,4.3,0.7,7.6,5.1,9.1c-0.3,0.3-0.6,0.5-0.8,0.8c-4.4-0.1-5-4-7-6.6
		C151.3,27.1,152.2,26,153.1,24.9z"/>
	<path class="st3" d="M205.7,59.4c-11.7,0-21.4-9.6-21.4-21.2c0-11.4,9.6-21,20.9-21.2c11.9-0.1,21.8,9.7,21.6,21.5
		C226.8,49.9,217.1,59.4,205.7,59.4z M216.1,38.3c0-6.1-4.7-11-10.5-11.1c-5.9,0-10.5,4.8-10.5,11c0,6.4,4.4,10.9,10.4,10.9
		C211.6,49.1,216.2,44.4,216.1,38.3z"/>
	<path class="st4" d="M274.1,38.3c0,11.7-9.7,21.2-21.4,21.1c-11.6-0.1-20.9-9.5-20.9-21c0-11.8,9.4-21.4,21.1-21.4
		C264.6,17,274.2,26.6,274.1,38.3z M253,27.2c-5.8,0-10.5,4.9-10.6,11c-0.1,6.2,4.4,10.9,10.4,11c6.1,0.1,10.5-4.4,10.5-10.8
		C263.3,32.1,258.8,27.2,253,27.2z"/>
</g>
</svg>
