<?xml version="1.0" encoding="utf-8"?>
<!-- Generator: Adobe Illustrator 21.0.0, SVG Export Plug-In . SVG Version: 6.00 Build 0)  -->
<svg version="1.1" id="Layer_1" xmlns="http://www.w3.org/2000/svg" xmlns:xlink="http://www.w3.org/1999/xlink" x="0px" y="0px"
	 viewBox="0 0 396 249.9" style="enable-background:new 0 0 396 249.9;" xml:space="preserve">
<style type="text/css">
	.st0{fill:#292D3F;}
</style>
<g>
	<path class="st0" d="M5.5,121.5c3.4-9.6,10.4-12.8,20.3-12.8c115.1,0.2,230.2,0.1,345.3,0.1c9.1,0,15.3,3.9,17.6,11.1
		c3.2,10-3.8,20.2-14.3,20.9c-1.4,0.1-2.7,0-4.1,0c-115,0-230-0.1-345,0.1c-9.8,0-16.6-3.4-19.9-12.8C5.5,126,5.5,123.8,5.5,121.5z"
		/>
	<path class="st0" d="M5.5,18.5c1.6-2.7,2.6-5.9,5.2-8c2.9-2.4,6-4,9.8-4.1c1,0,2-0.1,3-0.1c116,0,232,0,348,0
		c9.7,0,15.9,4.5,17.7,12.8c2,9-4.8,18.2-14,19c-1.7,0.1-3.5,0.1-5.2,0.1c-114.6,0-229.2-0.1-343.9,0.1c-9.9,0-16.9-2.9-20.6-12.3
		C5.5,23.5,5.5,21,5.5,18.5z"/>
	<path class="st0" d="M5.5,224.5c4.3-10.2,8.2-12.8,19.3-12.8c115.7,0,231.5,0.1,347.2-0.1c10.8,0,17.9,8.2,17.5,16.8
		c-0.4,7.7-6.4,14.3-14.1,15.1c-2,0.2-4,0.2-6,0.2c-114.5,0-229-0.1-343.4,0.1c-9.9,0-16.9-3-20.5-12.5C5.5,229,5.5,226.8,5.5,224.5
		z"/>
</g>
</svg>
